<svg xmlns="http://www.w3.org/2000/svg" xmlns:xlink="http://www.w3.org/1999/xlink" width="100" height="100" viewBox="0 0 100 100"><circle stroke="none" fill="#ffffff" r="48%" cx="50%" cy="50%"></circle><g transform="translate(50 50) scale(0.69 0.69) rotate(0) translate(-50 -50)" style="fill:#2588c7"><svg fill="#2588c7" xmlns:x="http://ns.adobe.com/Extensibility/1.0/" xmlns:i="http://ns.adobe.com/AdobeIllustrator/10.0/" xmlns:graph="http://ns.adobe.com/Graphs/1.0/" xmlns="http://www.w3.org/2000/svg" xmlns:xlink="http://www.w3.org/1999/xlink" version="1.1" x="0px" y="0px" viewBox="0 0 100 100" style="enable-background:new 0 0 100 100;" xml:space="preserve"><g><g i:extraneous="self"><g><path d="M5273.1,2400.1v-2c0-2.8-5-4-9.7-4s-9.7,1.3-9.7,4v2c0,1.8,0.7,3.6,2,4.9l5,4.9c0.3,0.3,0.4,0.6,0.4,1v6.4     c0,0.4,0.2,0.7,0.6,0.8l2.9,0.9c0.5,0.1,1-0.2,1-0.8v-7.2c0-0.4,0.2-0.7,0.4-1l5.1-5C5272.4,2403.7,5273.1,2401.9,5273.1,2400.1z      M5263.4,2400c-4.8,0-7.4-1.3-7.5-1.8v0c0.1-0.5,2.7-1.8,7.5-1.8c4.8,0,7.3,1.3,7.5,1.8C5270.7,2398.7,5268.2,2400,5263.4,2400z"></path><path d="M5268.4,2410.3c-0.6,0-1,0.4-1,1c0,0.6,0.4,1,1,1h4.3c0.6,0,1-0.4,1-1c0-0.6-0.4-1-1-1H5268.4z"></path><path d="M5272.7,2413.7h-4.3c-0.6,0-1,0.4-1,1c0,0.6,0.4,1,1,1h4.3c0.6,0,1-0.4,1-1C5273.7,2414.1,5273.3,2413.7,5272.7,2413.7z"></path><path d="M5272.7,2417h-4.3c-0.6,0-1,0.4-1,1c0,0.6,0.4,1,1,1h4.3c0.6,0,1-0.4,1-1C5273.7,2417.5,5273.3,2417,5272.7,2417z"></path></g><path d="M50.7,13.4c11.5,0,20.9,9.4,20.9,20.9c0,3.2-2.6,5.8-5.8,5.8c-3.2,0-5.8-2.6-5.8-5.8c0-5.1-4.2-9.3-9.3-9.3    c-5.3,0-9.3,3.8-9.3,9c0,0.8,0.3,3.4,2.9,9.2c0.8,1.7,1.4,3.4,1.9,5.2h15.4c2.9,0,5.2,2.3,5.2,5.2c0,2.9-2.3,5.2-5.2,5.2H48.1    c0.2,4.2-0.1,8.3-1.1,12.3c0.5,0,0.9-0.1,1.4-0.1c3.4,0,6.9,0.9,9.8,2.8c1.1,0.7,2.3,1,3.5,1c0.9,0,1.8-0.2,2.6-0.5l2.8-1.2    c0.8-0.3,1.5-0.5,2.3-0.5c2.3,0,4.4,1.3,5.4,3.5c1.3,3-0.1,6.4-3.1,7.7l-2.8,1.2c-2.3,1-4.8,1.5-7.2,1.5c-3.4,0-6.9-1-9.9-2.9    c-1.1-0.7-2.3-1-3.6-1c-0.5,0-0.9,0-1.4,0.2l-15,3.3c-0.4,0.1-0.9,0.1-1.3,0.1c-2.7,0-5.1-1.9-5.7-4.6c-0.7-3.1,1.3-6.3,4.4-7    l4.3-1c2.2-4.8,3.2-9.9,2.8-15h-5c-2.9,0-5.2-2.3-5.2-5.2c0-2.9,2.3-5.2,5.2-5.2h2.4c-0.1-0.1-0.1-0.2-0.1-0.4    c-2.7-5.9-3.9-10.4-3.9-14C29.7,22.5,38.9,13.4,50.7,13.4 M50.7,2.5C32.8,2.5,18.8,16.4,18.8,34c0,2.6,0.4,5.3,1.2,8.3    c-2.9,2.9-4.6,6.9-4.6,11.3c0,5.2,2.5,9.8,6.3,12.7C15.8,70,12.7,77,14.3,84.1c1.7,7.6,8.6,13.1,16.3,13.1c1.2,0,2.5-0.1,3.7-0.4    l13.3-3c4.3,2.4,9.2,3.7,14.2,3.7c4,0,7.8-0.8,11.5-2.4L76,94c8.5-3.6,12.4-13.5,8.8-22c-1.9-4.4-5.5-7.7-9.9-9.2    c1.8-2.6,2.9-5.8,2.9-9.1c0-2.2-0.5-4.4-1.3-6.3c3.7-3.1,6.1-7.7,6.1-12.9C82.5,16.8,68.2,2.5,50.7,2.5L50.7,2.5z"></path></g></g></svg></g></svg>